<svg id="visual" viewBox="0 0 900 600" width="900" height="600" xmlns="http://www.w3.org/2000/svg" xmlns:xlink="http://www.w3.org/1999/xlink" version="1.1"><g transform="translate(484.6020972148991 296.4312754149022)"><path d="M122.1 -213C158.2 -190.6 187.3 -157.8 197.1 -120.6C206.8 -83.3 197.2 -41.7 188.1 -5.3C179 31.2 170.5 62.3 159.1 96.8C147.8 131.3 133.6 169.2 106.7 195.2C79.7 221.3 39.8 235.7 -5.1 244.5C-50 253.3 -100 256.5 -142.9 239.6C-185.7 222.7 -221.5 185.6 -244.3 142.3C-267.1 99 -277.1 49.5 -265.5 6.7C-254 -36.2 -221 -72.3 -192.9 -106.5C-164.8 -140.7 -141.6 -173 -110.3 -198.1C-79 -223.2 -39.5 -241.1 1.7 -244.1C43 -247.1 86 -235.3 122.1 -213" fill="#EBE5C2"></path></g></svg>